<?xml version="1.0" encoding="UTF-8"?>
<svg width="298px" height="216px" viewBox="0 0 298 216" version="1.1" xmlns="http://www.w3.org/2000/svg" xmlns:xlink="http://www.w3.org/1999/xlink">
    <!-- Generator: Sketch 64 (93537) - https://sketch.com -->
    <title>Group 34</title>
    <desc>Created with Sketch.</desc>
    <defs>
        <path d="M17,0 L304,0 C313.388841,-1.72470207e-15 321,7.61115925 321,17 L321,198 C321,207.388841 313.388841,215 304,215 L17,215 C7.61115925,215 1.14980138e-15,207.388841 0,198 L0,17 C-1.14980138e-15,7.61115925 7.61115925,1.72470207e-15 17,0 Z" id="path-1"></path>
        <linearGradient x1="50.7194648%" y1="29.6477862%" x2="49.5006981%" y2="64.4681185%" id="linearGradient-3">
            <stop stop-color="#000000" offset="1%"></stop>
            <stop stop-color="#000000" stop-opacity="0.69" offset="13%"></stop>
            <stop stop-color="#000000" stop-opacity="0" offset="100%"></stop>
        </linearGradient>
        <linearGradient x1="50%" y1="0%" x2="50%" y2="100%" id="linearGradient-4">
            <stop stop-color="#A1AAFF" offset="0%"></stop>
            <stop stop-color="#6871FD" offset="100%"></stop>
        </linearGradient>
        <linearGradient x1="50%" y1="0%" x2="50%" y2="100%" id="linearGradient-5">
            <stop stop-color="#A1AAFF" offset="0%"></stop>
            <stop stop-color="#6871FD" offset="100%"></stop>
        </linearGradient>
        <linearGradient x1="63.1217934%" y1="-112.146497%" x2="63.1217934%" y2="121.675548%" id="linearGradient-6">
            <stop stop-color="#A85FEC" offset="0%"></stop>
            <stop stop-color="#5821C9" offset="100%"></stop>
        </linearGradient>
        <linearGradient x1="50%" y1="131.081179%" x2="50%" y2="-9.78198217%" id="linearGradient-7">
            <stop stop-color="#AD1867" offset="0%"></stop>
            <stop stop-color="#FF5878" offset="57.2701131%"></stop>
            <stop stop-color="#C82067" offset="100%"></stop>
            <stop stop-color="#FFCD00" offset="100%"></stop>
        </linearGradient>
        <linearGradient x1="100.873559%" y1="49.6993797%" x2="-4.78080051%" y2="50.2941814%" id="linearGradient-8">
            <stop stop-color="#C2CECE" stop-opacity="0" offset="0%"></stop>
            <stop stop-color="#AFBCBC" stop-opacity="0.179" offset="17.9%"></stop>
            <stop stop-color="#5B6A6A" offset="100%"></stop>
        </linearGradient>
        <linearGradient x1="63.1217934%" y1="-112.146497%" x2="63.1217934%" y2="121.675548%" id="linearGradient-9">
            <stop stop-color="#A85FEC" offset="0%"></stop>
            <stop stop-color="#5821C9" offset="100%"></stop>
        </linearGradient>
        <linearGradient x1="50%" y1="0%" x2="50%" y2="100%" id="linearGradient-10">
            <stop stop-color="#51EC51" offset="0%"></stop>
            <stop stop-color="#289321" offset="100%"></stop>
        </linearGradient>
        <linearGradient x1="46.3057276%" y1="75.4484607%" x2="57.4822018%" y2="17.6924752%" id="linearGradient-11">
            <stop stop-color="#000000" offset="1%"></stop>
            <stop stop-color="#000000" stop-opacity="0.69" offset="13%"></stop>
            <stop stop-color="#000000" stop-opacity="0" offset="100%"></stop>
        </linearGradient>
        <linearGradient x1="-0.0409879772%" y1="50.088675%" x2="100.123813%" y2="50.088675%" id="linearGradient-12">
            <stop stop-color="#000000" offset="1%"></stop>
            <stop stop-color="#000000" stop-opacity="0.69" offset="13%"></stop>
            <stop stop-color="#000000" stop-opacity="0" offset="100%"></stop>
        </linearGradient>
        <linearGradient x1="24.8285215%" y1="64.8902829%" x2="68.7551178%" y2="42.2842242%" id="linearGradient-13">
            <stop stop-color="#000000" offset="1%"></stop>
            <stop stop-color="#000000" stop-opacity="0.69" offset="13%"></stop>
            <stop stop-color="#000000" stop-opacity="0" offset="100%"></stop>
        </linearGradient>
        <linearGradient x1="7.96633979%" y1="7.47745755%" x2="83.1326104%" y2="96.738316%" id="linearGradient-14">
            <stop stop-color="#000000" offset="1%"></stop>
            <stop stop-color="#000000" stop-opacity="0.69" offset="13%"></stop>
            <stop stop-color="#000000" stop-opacity="0" offset="100%"></stop>
        </linearGradient>
        <linearGradient x1="32.3982149%" y1="40.8375715%" x2="70.2161449%" y2="61.6973935%" id="linearGradient-15">
            <stop stop-color="#000000" offset="1%"></stop>
            <stop stop-color="#000000" stop-opacity="0.69" offset="13%"></stop>
            <stop stop-color="#000000" stop-opacity="0" offset="100%"></stop>
        </linearGradient>
        <linearGradient x1="54.1362195%" y1="57.8603037%" x2="42.5434788%" y2="39.1059734%" id="linearGradient-16">
            <stop stop-color="#000000" offset="1%"></stop>
            <stop stop-color="#000000" stop-opacity="0.69" offset="13%"></stop>
            <stop stop-color="#000000" stop-opacity="0" offset="100%"></stop>
        </linearGradient>
        <linearGradient x1="97.1370661%" y1="4.55873752%" x2="30.453509%" y2="78.2598041%" id="linearGradient-17">
            <stop stop-color="#000000" offset="1%"></stop>
            <stop stop-color="#000000" stop-opacity="0.69" offset="13%"></stop>
            <stop stop-color="#000000" stop-opacity="0" offset="100%"></stop>
        </linearGradient>
    </defs>
    <g id="Page-1" stroke="none" stroke-width="1" fill="none" fill-rule="evenodd">
        <g id="Agent-dashboard-screen---12-04-20" transform="translate(-124.000000, -138.000000)">
            <g id="Welcome-Admin" transform="translate(124.783252, 138.000000)">
                <g id="Group-34" transform="translate(0.000000, 0.085369)">
                    <g id="Group-33">
                        <g id="Path">
                            <mask id="mask-2" fill="white">
                                <use xlink:href="#path-1"></use>
                            </mask>
                            <g id="Mask"></g>
                            <path d="M288.669633,194.03675 C284.211772,204.507912 277.406544,213.814206 268.779633,221.23675 C257.509633,230.77675 243.599633,236.51675 229.939633,242.09675 C211.609633,249.58675 193.179633,257.09675 173.809633,261.19675 C155.619633,265.04675 136.929633,265.78675 118.339633,266.38675 C55.6196332,268.38675 -9.10036679,268.71675 -67.2903668,245.22675 C-91.2003668,235.54675 -114.680367,220.75675 -125.850367,197.54675 C-126.400367,196.40675 -126.910367,195.25675 -127.390367,194.08675 C-132.290367,182.17675 -133.860367,169.01675 -133.783252,156.08675 C-133.542518,124.291118 -123.927707,93.2725708 -106.140367,66.91675 C-84.7803668,35.36675 -52.6803668,12.06675 -32.7403668,-20.35325 C-17.5103668,-45.12325 -8.30036679,-85.68325 23.0896332,-94.80325 C57.3996332,-104.80325 107.869633,-100.15325 141.579633,-91.03325 C170.699633,-83.14325 198.579633,-65.20325 211.189633,-37.79325 C220.599633,-17.33325 220.829633,6.51674998 230.909633,26.64675 C237.029633,38.85675 246.439633,49.02675 255.089633,59.58675 C274.089633,82.82675 290.289633,109.51675 295.089633,139.16675 C298.099633,157.54675 296.079633,177.14675 288.669633,194.03675 Z" fill="#6871FD" fill-rule="nonzero" opacity="0.0501302083" mask="url(#mask-2)"></path>
                        </g>
                        <path d="M38.4744839,170.30025 C37.0087595,170.369381 35.5962044,170.870386 34.4144839,171.74025 C30.8844839,174.96025 35.8544839,180.32025 40.2944839,182.10025 C58.9244839,189.56025 79.2944839,191.28025 99.2944839,192.54025 C148.494484,195.64025 197.767817,196.49025 247.114484,195.09025 C259.764484,194.73025 273.754484,186.88025 261.524484,174.74025 C251.404484,164.66025 237.304484,164.42025 224.044484,163.51025 C184.586582,160.860294 144.996365,160.830228 105.534484,163.42025 C83.1078172,164.853583 60.7544839,167.146917 38.4744839,170.30025 Z" id="Path" fill="url(#linearGradient-3)" fill-rule="nonzero" opacity="0.151855469"></path>
                        <path d="M206.012466,162.930187 C205.422503,161.535346 204.971603,159.727531 206.063034,158.67824 C207.154466,157.628949 209.084487,158.210484 210.441402,159.02379 C214.666774,161.557713 218.074927,165.252561 220.26007,169.668406 C217.977534,159.551224 217.523696,149.107247 218.920012,138.830203 C223.681855,144.055588 225.148334,151.421696 226.083847,158.425399 C226.475751,147.178177 227.141566,135.126078 233.980921,126.188141 C234.920648,124.957647 236.256492,123.697654 237.77354,123.946282 C238.742765,124.1022 239.505502,124.839654 240.124963,125.598178 C244.161995,130.528582 244.789884,137.355295 244.869951,143.718467 C244.96616,151.182639 244.553635,158.644693 243.635243,166.052776 C244.195112,160.088907 247.030826,154.569904 251.553387,150.642102 C252.046428,150.2207 252.657461,149.799298 253.289564,149.938361 C253.921667,150.077424 254.267217,150.709527 254.51163,151.295276 C257.381378,158.193627 253.845815,165.938997 250.377676,172.563438 C251.249978,170.456428 252.219203,168.248281 254.107084,166.988289 C255.994965,165.728296 259.083842,166.027492 259.951931,168.12186 C260.326978,169.032089 260.217414,170.068738 260.044639,171.037962 C259.200673,175.698079 257.069494,180.029043 253.892169,183.540962 C252.767025,184.779884 239.459148,182.546453 237.2805,182.483243 C232.223675,182.339966 225.927928,183.545176 221.048092,182.230401 C214.031748,180.346734 208.578805,169.032089 206.012466,162.930187 Z" id="Path" fill="url(#linearGradient-4)" fill-rule="nonzero"></path>
                        <path d="M44.0887833,162.402583 C43.6043706,161.257293 43.234141,159.772914 44.1303043,158.911352 C45.0264677,158.049789 46.611189,158.527282 47.725338,159.195079 C51.1947487,161.275658 53.9931492,164.309461 55.787348,167.935267 C53.9131802,159.62815 53.5405385,151.052705 54.6870393,142.614327 C58.5969412,146.904839 59.8010525,152.953077 60.5691926,158.703746 C60.8909809,149.468766 61.4376752,139.572908 67.0534015,132.234057 C67.8250016,131.223711 68.9218501,130.189144 70.1674826,130.393289 C70.9633033,130.521312 71.5895796,131.126828 72.0982129,131.749644 C75.4129792,135.79795 75.9285326,141.403296 75.9942744,146.628032 C76.0732711,152.756789 75.734551,158.883807 74.9804679,164.96651 C75.440171,160.069636 77.7685474,155.538039 81.4819773,152.31296 C81.8868078,151.966951 82.3885209,151.620942 82.9075344,151.735125 C83.426548,151.849308 83.7102753,152.368321 83.9109606,152.849274 C86.2672819,158.513441 83.3642663,164.873087 80.5166122,170.312349 C81.2328508,168.582304 82.0286715,166.769217 83.5787919,165.73465 C85.1289123,164.700083 87.6651584,164.945749 88.3779369,166.665414 C88.6858849,167.412793 88.5959226,168.263975 88.4540589,169.059796 C87.7610864,172.886171 86.0111969,176.442282 83.4023273,179.325884 C82.4784833,180.34315 71.5515186,178.509302 69.762652,178.457401 C65.6105439,178.339758 60.4411692,179.329344 56.4343848,178.249796 C50.6733348,176.703135 46.1959782,167.412793 44.0887833,162.402583 Z" id="Path-Copy" fill="url(#linearGradient-5)" fill-rule="nonzero" transform="translate(66.084717, 155.000000) rotate(-10.000000) translate(-66.084717, -155.000000) "></path>
                        <g id="email" transform="translate(87.216748, 35.000000)" fill-rule="nonzero">
                            <path d="M62.1116543,18.6508047 L0.0898066406,68.7664922 L0.0898066406,81.106127 L65.5,81.106127 L130.910193,81.106127 L130.910193,68.7664922 L68.8883457,18.6508047 C66.911832,17.0537305 64.088168,17.0537305 62.1116543,18.6508047 Z" id="Path" fill="url(#linearGradient-6)"></path>
                            <path d="M111.008976,128.903066 L19.9910243,128.903066 C17.5108364,128.903066 15.5,126.489289 15.5,123.512109 L15.5,21.390957 C15.5,18.4137773 17.5106233,16 19.9910243,16 L111.008976,16 C113.489164,16 115.5,18.4137773 115.5,21.390957 L115.5,123.512365 C115.5,126.489801 113.489377,128.903066 111.008976,128.903066 Z" id="Path" fill="url(#linearGradient-7)"></path>
                            <path d="M125.519236,121.509088 L125.519236,123.607646 C125.519236,127.082984 122.698643,129.903322 119.223561,129.903322 L11.7766953,129.903322 C8.30135742,129.903322 5.48101953,127.082729 5.48101953,123.607646 L5.48101953,121.509088 L125.519236,121.509088 Z" id="Path" fill="url(#linearGradient-8)"></path>
                            <g id="Group" transform="translate(30.703125, 33.886719)" fill="#E8E8E8">
                                <rect id="Rectangle" x="0.114625" y="0.18421875" width="69.3645" height="3.95353906"></rect>
                                <rect id="Rectangle" x="0.114625" y="15.9970957" width="69.3645" height="3.95353906"></rect>
                                <rect id="Rectangle" x="0.114625" y="32.1699668" width="69.3645" height="3.95353906"></rect>
                                <rect id="Rectangle" x="0.114625" y="48.3430938" width="69.3645" height="3.95353906"></rect>
                            </g>
                            <path d="M108.80727,70.3704746 C103.429617,70.3704746 98.5020215,68.4482031 94.6700156,65.2558457 L93.1734941,65.5186133 L125.519236,97.8643555 L125.519236,62.7238613 C121.466424,67.4048086 115.484943,70.3704746 108.80727,70.3704746 Z" id="Path"></path>
                            <path d="M130.910193,68.8859785 L130.910193,142.609043 C130.910193,145.584943 128.495137,148 125.519236,148 L5.48076367,148 C2.50486328,148 0.0898066406,145.584943 0.0898066406,142.609043 L0.0898066406,68.8859785 L66.2189648,121.045471 L130.910193,68.8859785 Z" id="Path" fill="url(#linearGradient-9)"></path>
                            <g id="Group-6" transform="translate(0.203578, 0.461016)">
                                <circle id="Oval" fill="url(#linearGradient-10)" cx="15.7176347" cy="15.7176347" r="15.7176347"></circle>
                                <path d="M13.2176345,10.3408006 C13.2176345,9.90538291 13.393542,9.56195922 13.7452016,9.31068496 L16.3583294,6.79809774 C16.5424729,6.61395427 16.7685731,6.52164944 17.0367854,6.52164944 C17.3382524,6.52164944 17.6103496,6.60136725 17.8532325,6.76033668 C18.09596,6.9196169 18.2176345,7.13328549 18.2176345,7.40103165 L18.2176345,24.0340824 C18.2176345,24.3022947 18.0833729,24.5158079 17.8156268,24.6749328 C17.5474145,24.834213 17.237867,24.91362 16.886052,24.91362 C16.5174542,24.91362 16.2032449,24.834213 15.9438901,24.6749328 C15.6839137,24.5159633 15.554314,24.3022947 15.554314,24.0340824 L15.554314,10.0641969 L14.6749319,11.1698348 C14.5074157,11.3373509 14.3232722,11.421109 14.1221907,11.421109 C13.8709164,11.421109 13.6574033,11.3081366 13.4813404,11.0820364 C13.3055883,10.8557808 13.2176345,10.6088576 13.2176345,10.3408006 Z" id="Path" fill="#FFFFFF" transform="translate(15.717635, 15.717635) scale(-1, 1) rotate(133.000000) translate(-15.717635, -15.717635) "></path>
                            </g>
                        </g>
                    </g>
                    <g id="jogging" transform="translate(19.783252, 88.414631)" fill-rule="nonzero">
                        <g id="Group-29" transform="translate(0.811448, 0.500000)">
                            <path d="M48.5023041,21.0005174 C50.068332,23.3196463 49.3856142,28.4224338 50.6138024,30.9280784 C50.7531803,31.2470723 50.9527176,31.5362222 51.2015027,31.779716 C51.9053355,32.4096463 54.9318163,30.6746986 55.7236282,30.3333397 C56.3605968,30.058845 56.6245341,28.8588101 56.7160324,28.0810749 C56.7104412,27.8558017 56.7281309,27.6305533 56.7688198,27.4089146 C56.987008,26.729716 58.0603529,26.729716 58.3946735,26.0962666 C58.5248825,25.8499251 58.514325,25.5437578 58.6410149,25.2938972 C58.8697775,24.9288919 59.2973541,24.7394769 59.7213982,24.8152909 C60.1330853,24.89674 60.5236029,25.0620511 60.8686456,25.3009355 C61.5056142,25.6880436 62.1601787,26.1138624 62.5120951,26.7684268 C62.7340108,27.2450247 62.868696,27.7575434 62.9097606,28.2816673 C63.0712113,29.1378973 63.0996992,30.0138995 62.9942205,30.8788101 C62.8817318,31.7549813 62.3679416,32.5289184 61.6041508,32.9727126 C60.8299348,33.3668589 59.9219905,32.9727126 59.2146386,33.3457439 C58.8627222,33.5181829 58.5811891,33.9017718 58.2327919,34.098845 C57.849328,34.310549 57.4532684,34.4985891 57.0468337,34.6619112 C54.8508756,35.5909704 52.6126874,36.5305871 50.2372519,36.7241411 C49.9031776,36.7750469 49.5615578,36.7349278 49.2483668,36.6080087 C48.9394331,36.4192588 48.6885766,36.1489183 48.5234191,35.8267544 C45.4436039,30.891623 43.8685152,25.1660287 43.9907362,19.3500296 C44.0963111,15.4332004 47.5767641,19.6280436 48.5023041,21.0005174 Z" id="Path" fill="#F3BD8F"></path>
                            <path d="M35.2632101,27.2188798 L30.5932797,33.5533746 C30.5932797,33.5533746 30.4771473,32.3990889 30.2730358,31.2377648 C30.3469383,31.1673815 30.4173215,31.0969983 30.4877048,31.0230958 C31.6982972,29.7386011 32.3211891,27.9930958 32.5464156,26.2475906 C32.7716421,24.5020854 32.6308756,22.7284268 32.4971473,20.968845 C32.3811951,20.1887845 32.4352159,19.3928777 32.6555097,18.6356394 L35.2632101,27.2188798 Z" id="Path" fill="#F3BD8F"></path>
                            <path d="M40.2569034,14.4619112 C40.2785038,15.1410959 40.5490434,15.7886373 41.0170428,16.2813188 C41.7208756,16.90773 42.7590289,16.8725383 43.6282623,17.2174164 C43.7378823,17.2562266 43.8376083,17.3187055 43.9203529,17.4004129 C43.9829204,17.4775651 44.0274125,17.5677518 44.050562,17.6643502 C44.1611851,18.1177115 44.1254602,18.594455 43.9485062,19.0262666 C43.4734191,20.3389146 41.9214679,23.7489843 40.6053006,24.2135139 C39.2891334,24.6780436 38.2228268,22.2427822 36.8397954,22.0633049 C36.3782141,22.0320822 35.9295788,21.8973713 35.5271473,21.6691585 C35.098887,21.3442139 34.7589002,20.917113 34.5382623,20.4268937 C34.2688823,19.9803655 34.0895498,19.4854078 34.0103878,18.9699599 C33.9370248,18.4441651 34.1439079,17.9182816 34.5558581,17.5834094 C34.7480557,17.4655634 34.9536179,17.371052 35.1681926,17.3018763 C35.5028977,17.1717653 35.8245693,17.0103404 36.1289243,16.8197509 C36.438135,16.6586903 36.6800891,16.3930398 36.8116421,16.070169 C36.8631515,15.7942491 36.8511164,15.5102199 36.7764505,15.2396463 C36.6058031,14.3243382 36.6058031,13.3853726 36.7764505,12.4700645 C36.816815,12.1978187 36.9012042,11.9339536 37.0263111,11.6888101 C37.2608675,11.2664843 37.6772102,10.9760505 38.1545546,10.9017664 C38.631899,10.8274823 39.1168101,10.9776632 39.4686107,11.3087404 C40.3448825,12.1181481 40.1548477,13.3991237 40.2569034,14.4619112 Z" id="Path" fill="#F3BD8F"></path>
                            <path d="M44.4271125,9.59138851 C44.4782058,10.2150622 44.4258866,10.8428925 44.2722693,11.449507 C43.8288547,12.8923641 42.3015376,13.8214234 40.7953355,13.8847683 C40.299738,13.9219164 39.8031387,13.8272104 39.3559975,13.6102735 C39.0995264,13.4641231 38.862966,13.28552 38.6521648,13.0788798 C37.5964156,12.1146289 36.6251264,10.9673815 36.3048825,9.55971603 C36.185231,9.03536063 35.3371125,8.03591813 35.3441073,7.49748607 C35.3441073,6.70215506 36.2661717,6.35375785 36.5688198,5.62177178 C37.1456894,4.2886603 38.3777124,3.35429836 39.817008,3.15835715 C41.2774609,2.97184147 42.632339,3.7073467 43.7092031,4.62584844 C44.244116,5.08333973 44.1631752,5.98776482 44.2300393,6.67752091 C44.3391334,7.63121429 44.39544,8.60250349 44.4271125,9.59138851 Z" id="Path" fill="#F3BD8F"></path>
                            <path d="M44.0329661,1.47619687 C44.4411891,2.18002962 44.7156839,2.9788798 45.3456142,3.48212022 C45.6025132,3.68623171 45.9086804,3.83403659 46.1515027,4.05574391 C46.8012623,4.73437234 46.8435194,5.79080053 46.2500393,6.51915854 C45.640033,7.20571369 44.6960502,7.49135691 43.8077397,7.25818293 C42.9336225,7.01184985 42.1861553,6.44181178 41.7173564,5.66400175 C41.4041508,5.17483799 41.129656,4.58009931 40.5771473,4.39710279 C40.0897655,4.29179392 39.5812488,4.42218282 39.2046735,4.74901917 C38.8105271,5.04110976 38.4797257,5.41414112 38.0644644,5.67104008 C37.8243919,5.79251185 37.594853,5.93376659 37.3782275,6.09333973 C36.7307013,6.65640593 36.8257188,7.66992509 36.9770428,8.5145244 C36.7060672,8.59898433 36.6567989,8.10982056 36.4174958,7.95497736 C36.1781926,7.80013415 35.907217,8.0288798 35.8649871,8.27874042 C35.8514294,8.53022059 35.924736,8.77871761 36.0726177,8.98257318 C36.6884714,10.0629565 37.4169383,11.1222247 37.6280881,12.3504129 C37.6699817,12.5135903 37.6601439,12.6857528 37.5999348,12.8430958 C37.4785467,13.0343711 37.288308,13.1716957 37.0685411,13.2266847 C36.6966654,13.3837892 36.296837,13.4639943 35.8931404,13.46249 C35.4714176,13.4611408 35.0770579,13.2534447 34.8373912,12.9064408 C34.7207112,12.6887551 34.651166,12.4489439 34.6332797,12.202608 C34.5765824,11.3844067 34.4589508,10.5715723 34.2813634,9.77086586 C33.8273912,8.20131882 32.4760324,6.82884495 32.6731055,5.19595297 C32.8201841,4.46315927 33.1278657,3.77207758 33.5740114,3.1724338 C33.8367921,2.71760101 34.1560508,2.29783492 34.5241857,1.92313067 C34.8901023,1.61472562 35.2932613,1.35344073 35.7242205,1.14539548 C36.605189,0.617673145 37.570752,0.246211147 38.5782623,0.0474163831 C39.7712588,-0.132060969 40.8340463,0.251527881 42.0024087,0.311353665 C42.9525829,0.35358363 43.5086107,0.575290948 44.0329661,1.47619687 Z" id="Path" fill="#B55F40"></path>
                            <path d="M5.32216476,68.7133397 C4.74807161,68.7457762 4.19509835,68.9410869 3.72798357,69.2764059 C3.41364924,69.586388 3.24657455,70.0158026 3.26875455,70.4567141 C3.29093455,70.8976257 3.50026003,71.3081055 3.84411597,71.5849774 C4.15652445,71.7818468 4.50440816,71.9157401 4.86819263,71.9791237 C8.97153758,72.9504129 13.2367641,73.017277 17.4492031,72.7955697 C18.5929313,72.7357439 19.7366595,72.6548031 20.8698303,72.4929216 C24.7098426,71.9475164 28.3681976,70.5082822 31.5504923,68.2910401 C31.7469217,68.1828449 31.8998605,68.0100117 31.9833494,67.8018763 C32.0141854,67.6205507 31.9896578,67.4341407 31.9129661,67.2669634 C31.3745341,65.7396463 30.0161369,63.7302038 28.3938024,63.1847335 C27.1867292,62.7800296 25.8424087,63.948392 24.7268337,64.3214234 C20.7012171,65.6009877 16.6036678,66.6421201 12.4555097,67.4394024 C10.0882855,67.9227009 7.7105039,68.3473467 5.32216476,68.7133397 Z" id="Path" fill="#F3BD8F"></path>
                            <path d="M50.4026526,83.8457439 C50.4202484,87.8927822 50.4484017,91.9644547 51.1803878,95.9446289 C51.1905237,96.0902856 51.2501222,96.2281073 51.3493076,96.3352561 C51.5011067,96.4310633 51.6855904,96.4603262 51.8595864,96.4161969 L53.249656,96.2507962 C53.5323482,96.2426542 53.8078951,96.1601115 54.0485062,96.011493 C54.4004226,95.7405174 54.4813634,95.2302387 54.5130358,94.7797857 C54.6467641,92.7457091 54.5939766,90.7010749 54.8016073,88.6775558 C54.9810846,86.9355697 55.3505968,85.2182178 55.6110149,83.4867892 C55.9277397,81.3436185 56.0720254,79.1758136 56.2127919,77.015047 L56.8145689,67.9285662 C56.8558218,67.702654 56.8119427,67.4694682 56.6913982,67.2740017 C56.5017161,67.0984029 56.2439532,67.0159188 55.9875655,67.0487753 C54.3131037,67.0612283 52.6906928,67.6321684 51.3774609,68.6711098 C50.3217118,69.5403432 50.3217118,70.3391934 50.3533843,71.6236882 C50.4413634,75.6918415 50.3850567,79.7635139 50.4026526,83.8457439 Z" id="Path" fill="#F5BD8D"></path>
                            <path d="M51.4196909,94.5017718 C51.207566,94.5095153 51.0094919,94.6098386 50.8777397,94.7762666 C50.7686245,94.97037 50.7003615,95.1847395 50.6771473,95.4061969 C50.45544,96.6695767 50.2337327,97.9716673 50.5047083,99.2280087 C50.5255598,99.3789444 50.5849484,99.5219617 50.6771473,99.64327 C50.8106014,99.7710236 50.9779467,99.85775 51.1592728,99.8931307 C53.1114445,100.431349 55.1185797,100.745407 57.1418512,100.829228 C57.9638705,100.905053 58.7923353,100.870731 59.6052658,100.727172 C59.8800173,100.679598 60.14294,100.57921 60.3794818,100.431563 C60.6185781,100.279671 60.7831998,100.034653 60.8334609,99.7558833 C60.8347945,99.3174477 60.6414183,98.9010441 60.3055794,98.6191934 C59.8555914,98.1385661 59.354017,97.7089823 58.8099348,97.3382178 C58.3559627,97.0285314 57.8738372,96.7575558 57.4374609,96.4267544 C57.0010846,96.095953 56.6491682,95.7475558 56.2479836,95.4132352 C55.9358586,95.1581703 55.6079225,94.9230907 55.2661369,94.7094024 C55.0758547,94.5822555 54.8685068,94.4827285 54.6502832,94.4137927 C54.400907,94.3586755 54.1450722,94.3385403 53.8901438,94.3539669 C53.2989243,94.3539669 52.7077048,94.4032352 52.130562,94.4595418 C51.9334888,94.484176 51.6660324,94.4665801 51.4196909,94.5017718 Z" id="Path" fill="#6871FD"></path>
                            <path d="M5.68463862,72.0389495 C5.58007594,72.5056874 5.35429923,72.9366054 5.03007416,73.2882526 C4.31317793,74.280578 3.82302051,75.4182718 3.59425535,76.6209007 C3.40070134,77.6484965 3.33031807,78.8450122 2.50331458,79.4890192 C2.32033064,79.6465306 2.08666865,79.7327481 1.84523096,79.7318485 C1.60370497,79.7086928 1.37752319,79.6030584 1.20474315,79.4327126 C0.381258832,78.7288798 0.208819807,77.5182875 0.127879041,76.4308659 C0.0469382743,75.3434443 0.00470830915,74.3193676 0.00118914538,73.2636185 C0.00118914538,73.0313537 0.00118914538,72.7920505 0.00118914538,72.5597857 L0.00118914538,72.5597857 C-0.016340989,71.4813599 0.160074894,70.4085606 0.522025382,69.3925383 C0.584011644,69.235146 0.656918534,69.0822767 0.740213536,68.935047 C0.866856594,68.7026025 1.04950629,68.5054376 1.27160726,68.3614234 C1.51405341,68.2321632 1.77728239,68.1464054 2.04934246,68.1080436 C3.14732155,67.8792979 4.27345395,67.6505523 5.3855097,67.815953 C5.46017781,67.8213333 5.53028723,67.8538841 5.58258287,67.9074512 C5.6076884,67.9743847 5.6076884,68.0481484 5.58258287,68.1150819 C5.40877583,68.7769844 5.35044099,69.4639068 5.41014385,70.1456394 C5.44526061,70.3978024 5.44526061,70.6536157 5.41014385,70.9057788 C5.58419189,71.2586002 5.67793505,71.6455912 5.68463862,72.0389495 L5.68463862,72.0389495 Z" id="Path" fill="#6871FD"></path>
                            <path d="M51.4196909,94.5017718 C51.207566,94.5095153 51.0094919,94.6098386 50.8777397,94.7762666 C50.7686245,94.97037 50.7003615,95.1847395 50.6771473,95.4061969 C50.45544,96.6695767 50.2337327,97.9716673 50.5047083,99.2280087 C50.5255598,99.3789444 50.5849484,99.5219617 50.6771473,99.64327 C50.8106014,99.7710236 50.9779467,99.85775 51.1592728,99.8931307 C53.1114445,100.431349 55.1185797,100.745407 57.1418512,100.829228 C57.9638705,100.905053 58.7923353,100.870731 59.6052658,100.727172 C59.8800173,100.679598 60.14294,100.57921 60.3794818,100.431563 C60.6185781,100.279671 60.7831998,100.034653 60.8334609,99.7558833 C60.8347945,99.3174477 60.6414183,98.9010441 60.3055794,98.6191934 C59.8555914,98.1385661 59.354017,97.7089823 58.8099348,97.3382178 C58.3559627,97.0285314 57.8738372,96.7575558 57.4374609,96.4267544 C57.0010846,96.095953 56.6491682,95.7475558 56.2479836,95.4132352 C55.9358586,95.1581703 55.6079225,94.9230907 55.2661369,94.7094024 C55.0758547,94.5822555 54.8685068,94.4827285 54.6502832,94.4137927 C54.400907,94.3586755 54.1450722,94.3385403 53.8901438,94.3539669 C53.2989243,94.3539669 52.7077048,94.4032352 52.130562,94.4595418 C51.9334888,94.484176 51.6660324,94.4665801 51.4196909,94.5017718 Z" id="Path" fill="url(#linearGradient-11)"></path>
                            <path d="M5.68463862,72.0389495 C5.58007594,72.5056874 5.35429923,72.9366054 5.03007416,73.2882526 C4.31317793,74.280578 3.82302051,75.4182718 3.59425535,76.6209007 C3.40070134,77.6484965 3.33031807,78.8450122 2.50331458,79.4890192 C2.32033064,79.6465306 2.08666865,79.7327481 1.84523096,79.7318485 C1.60370497,79.7086928 1.37752319,79.6030584 1.20474315,79.4327126 C0.381258832,78.7288798 0.208819807,77.5182875 0.127879041,76.4308659 C0.0469382743,75.3434443 0.00470830915,74.3193676 0.00118914538,73.2636185 C0.00118914538,73.0313537 0.00118914538,72.7920505 0.00118914538,72.5597857 L0.00118914538,72.5597857 C-0.016340989,71.4813599 0.160074894,70.4085606 0.522025382,69.3925383 C0.584011644,69.235146 0.656918534,69.0822767 0.740213536,68.935047 C0.866856594,68.7026025 1.04950629,68.5054376 1.27160726,68.3614234 C1.51405341,68.2321632 1.77728239,68.1464054 2.04934246,68.1080436 C3.14732155,67.8792979 4.27345395,67.6505523 5.3855097,67.815953 C5.46017781,67.8213333 5.53028723,67.8538841 5.58258287,67.9074512 C5.6076884,67.9743847 5.6076884,68.0481484 5.58258287,68.1150819 C5.40877583,68.7769844 5.35044099,69.4639068 5.41014385,70.1456394 C5.44526061,70.3978024 5.44526061,70.6536157 5.41014385,70.9057788 C5.58419189,71.2586002 5.67793505,71.6455912 5.68463862,72.0389495 L5.68463862,72.0389495 Z" id="Path" fill="url(#linearGradient-12)"></path>
                            <path d="M0.740213536,68.9385662 C0.656918534,69.0857959 0.584011644,69.2386652 0.522025382,69.3960575 C0.160074894,70.4120798 -0.016340989,71.4848791 0.00118914538,72.5633049 C0.00286531764,71.8853617 0.0487115553,71.2082481 0.138436532,70.5362666 C0.163611528,69.9531724 0.374458373,69.3933802 0.740213536,68.9385662 L0.740213536,68.9385662 Z" id="Path" fill="#6871FD"></path>
                            <path d="M48.0412937,51.3884965 C48.0293086,51.6765704 47.9458632,51.9571405 47.7984714,52.2049425 C47.4895526,52.5266516 47.0620374,52.7073277 46.6160324,52.7046638 C42.0587153,53.1867892 37.5365898,51.4166498 32.9511195,51.4870331 C32.3373919,51.5175816 31.7221872,51.4774338 31.1176351,51.3673815 L31.2408059,51.1315976 L29.481224,47.6968937 C29.4014563,43.0046754 29.3205155,38.3183223 29.2384017,33.6378345 C29.2101989,33.2395214 29.2518839,32.8393449 29.3615724,32.4553955 C29.5749981,31.9930851 29.8845246,31.5815828 30.2695167,31.2483223 C30.3434191,31.177939 30.4138024,31.1075558 30.4841857,31.0336533 C31.694778,29.7491585 32.31767,28.0036533 32.5428965,26.2581481 C32.7681229,24.5126429 32.6273564,22.7389843 32.4936282,20.9794024 C32.3776759,20.199342 32.4316968,19.4034352 32.6519905,18.6461969 C32.8666595,18.0655348 33.5704923,17.1364756 34.274325,17.5059878 C34.8409104,17.8051167 34.6895864,18.9136533 34.8162763,19.4415279 C35.3723041,21.7500993 38.1383668,23.2351864 40.3695167,22.4398554 C42.6006665,21.6445244 43.793663,18.734176 42.762548,16.5980436 L44.588994,16.7493676 C44.9162763,20.3142805 46.5491682,23.6011794 47.5662066,27.0323641 C49.8994121,34.8765801 48.9809104,43.2662666 48.0412937,51.3884965 Z" id="Path" fill="#6871FD"></path>
                            <path d="M48.0800045,51.0647335 C48.0800045,51.1703084 48.0518512,51.2794024 48.0412937,51.3884965 C48.0293086,51.6765704 47.9458632,51.9571405 47.7984714,52.2049425 C47.4895526,52.5266516 47.0620374,52.7073277 46.6160324,52.7046638 C42.998332,53.0847335 39.4017466,52.0500993 35.777008,51.6489146 C34.8427707,51.5379578 33.9024475,51.48624 32.961677,51.4940714 C32.3479494,51.5246199 31.7327447,51.4844722 31.1281926,51.3744199 L31.2513634,51.1386359 L30.8642553,50.3784965 L29.4953006,47.7039321 C29.4155329,43.0117137 29.3345922,38.3253606 29.2524783,33.6448728 C29.2242755,33.2465597 29.2659606,32.8463832 29.3756491,32.4624338 C29.5890748,32.0001234 29.8986013,31.5886211 30.2835933,31.2553606 C30.3574958,31.1849774 30.427879,31.1145941 30.4982623,31.0406916 C31.7088547,29.7561969 32.3317466,28.0106916 32.5569731,26.2651864 C32.7065537,24.8241931 32.7136262,23.3719586 32.5780881,21.9295767 C32.5569731,21.6128519 32.532339,21.3031655 32.5077048,20.9899599 C32.3917526,20.2098995 32.4457734,19.4139927 32.6660672,18.6567544 C32.8807362,18.0760923 33.5845689,17.1470331 34.2884017,17.5165453 C34.8549871,17.8156742 34.703663,18.9242108 34.8303529,19.4520854 C35.3863808,21.7606568 38.1524435,23.2457439 40.3835933,22.4504129 C42.6147432,21.6550819 43.8077397,18.7447335 42.7766247,16.6086011 L44.6030707,16.7599251 C44.9303529,20.324838 46.5632449,23.6117369 47.5802832,27.0429216 C49.8677397,34.7710052 49.0020254,43.0410401 48.0800045,51.0647335 Z" id="Path" fill="url(#linearGradient-13)"></path>
                            <path d="M25.9163111,60.1899251 C24.9731752,60.9746986 23.7414679,61.7524338 23.7062763,62.9841411 C23.7253433,63.4523711 23.8453896,63.910948 24.0581926,64.3284617 C24.6995678,65.8286421 25.49319,67.2590488 26.4265898,68.5972073 C27.3028616,69.857068 28.5380881,71.1380436 30.061886,71.0817369 C30.7862378,71.0122334 31.4835614,70.7709449 32.0959627,70.3779042 C34.2074501,69.1923855 36.1145499,67.6750232 37.7442205,65.8839321 C38.2333843,65.3490192 38.7471822,64.7577997 39.4580533,64.6099948 C39.8223646,64.5507215 40.1950011,64.5674961 40.5525132,64.6592631 C42.4935906,65.0592773 44.243749,66.1004481 45.5215724,67.6153606 C46.0951961,68.2980784 46.5773215,69.0863711 47.3409801,69.5614582 C48.9879487,70.5925732 51.1240811,69.7479739 52.8660672,68.8928171 L55.4667292,67.6153606 C55.934778,67.386615 56.4556142,67.0945244 56.5717466,66.5877648 C56.616441,66.1812487 56.5181378,65.7718595 56.2937327,65.4299599 C55.0878326,63.0181597 53.8748941,60.6098786 52.6549174,58.2051167 C51.7258581,56.3716324 50.7053006,52.7081829 48.9914679,51.571493 C47.1368686,50.3433049 44.7684714,50.2412491 42.5549174,50.1638275 L35.326555,49.9667544 C34.0702135,49.9280436 32.2578442,49.5796463 31.1035585,50.216615 C28.3938024,51.6911446 28.7175655,58.2649425 25.9163111,60.1899251 Z" id="Path" fill="#6871FD"></path>
                            <path d="M56.5611891,66.5807265 C56.4485759,67.0874861 55.9277397,67.3795767 55.4596909,67.6118415 L52.8590289,68.8857788 C52.3597406,69.1366317 51.8475784,69.3609963 51.3246735,69.557939 C49.9592379,70.0646986 48.5093425,70.2969634 47.3339418,69.557939 C46.5773215,69.0863711 46.0881578,68.2945592 45.5145341,67.6118415 C44.2368869,66.0960466 42.4868247,65.0536937 40.5454749,64.6522247 C40.1871691,64.5654638 39.8153115,64.5499199 39.4510149,64.6064756 C39.3033258,64.6372851 39.1602123,64.6869609 39.0251961,64.7542805 C38.5305788,65.0491575 38.0940599,65.4320061 37.7371822,65.8839321 C36.1064493,67.6729234 34.1995097,69.18897 32.0889243,70.374385 C31.4759327,70.7662079 30.778911,71.0073919 30.0548477,71.0782178 C28.5240114,71.1345244 27.2958233,69.8500296 26.4195515,68.5936882 C25.8849013,67.8267279 25.3960579,67.0288321 24.9555794,66.204176 C24.6294702,65.5918415 24.3279952,64.9654303 24.0511543,64.3249425 C23.8367607,63.9080359 23.716621,63.449102 23.6992379,62.980622 C23.7344296,61.7489146 24.9661369,60.9746986 25.9092728,60.1864059 C28.6260672,58.3212491 28.4043599,52.0747335 30.836102,50.367939 C30.9100045,50.3151516 30.9874261,50.2694024 31.0648477,50.2236533 C32.2332101,49.5866847 34.0455794,49.9350819 35.2878442,49.9737927 L36.6955097,50.0125035 L42.5021299,50.1708659 C44.374325,50.2201342 46.3450567,50.3010749 48.0307362,51.0612143 C48.3457298,51.2020536 48.6482781,51.3692203 48.9351613,51.5609355 C50.6454749,52.6976254 51.6695515,56.3610749 52.5986107,58.1945592 C53.8162414,60.596975 55.0291799,63.0052561 56.2374261,65.4194024 C56.4762907,65.7574728 56.5906955,66.1678376 56.5611891,66.5807265 L56.5611891,66.5807265 Z" id="Path" fill="url(#linearGradient-14)"></path>
                            <path d="M36.9066595,49.3121899 C36.8815641,49.552518 36.8272008,49.7888799 36.744778,50.0160227 C36.5104731,50.6058778 36.1837985,51.1546911 35.777008,51.6418763 L35.1893076,52.4020157 C34.1784032,53.6805968 33.3351745,55.0832184 32.6801438,56.5757439 C31.8214679,58.532399 31.2724783,60.6579739 30.0935585,62.4421899 C28.8954307,64.2233268 27.1249485,65.5418767 25.075231,66.1795418 L24.969656,66.2076951 C24.6435469,65.5953606 24.3420718,64.9689495 24.065231,64.3284617 C23.8508374,63.911555 23.7306976,63.4526212 23.7133146,62.9841411 C23.7485062,61.7524338 24.9802135,60.9782178 25.9233494,60.1899251 C28.6401438,58.3247683 28.4184365,52.0782526 30.8501787,50.3714582 L29.481224,47.6968937 C29.4014563,43.0046754 29.3205155,38.3183223 29.2384017,33.6378345 C29.2101989,33.2395214 29.2518839,32.8393449 29.3615724,32.4553955 C29.5749981,31.9930851 29.8845246,31.5815828 30.2695167,31.2483223 C30.3434191,31.177939 30.4138024,31.1075558 30.4841857,31.0336533 C31.694778,29.7491585 32.31767,28.0036533 32.5428965,26.2581481 C32.692477,24.8171547 32.6995496,23.3649202 32.5640114,21.9225383 C32.6660672,21.9225383 32.7681229,21.9225383 32.8666595,21.9471725 C34.9429661,22.2251864 34.2461717,27.4792979 34.0631752,29.006615 C33.7781229,31.3785314 33.2959975,33.7469286 33.4191682,36.1294024 C33.6162414,40.0004826 35.3723041,43.5829913 36.5617815,47.2675558 C36.8150751,47.9184215 36.9324438,48.6142508 36.9066595,49.3121899 L36.9066595,49.3121899 Z" id="Path" fill="url(#linearGradient-15)"></path>
                            <path d="M26.6342205,23.2563014 C26.1715596,24.0696152 25.7579073,24.9098464 25.3954749,25.7725035 L23.0024435,31.1884965 C22.6505271,32.0190192 22.2634191,32.8812143 22.2774958,33.7856394 C22.3126874,35.7000645 24.0194818,37.1358833 25.6910846,38.0719808 C27.5706535,39.1232445 29.5912838,39.8994983 31.6912588,40.3770331 C32.7509825,40.6446904 33.8340179,40.8096795 34.9253703,40.869716 C35.2772867,40.869716 35.6292031,40.7289495 35.9459278,40.8239669 C36.3893425,40.954176 36.7095864,41.4292631 37.1213285,41.6298554 C37.4305833,41.7588982 37.7611389,41.8293054 38.0961369,41.8374861 C38.7343704,41.8991655 39.3785049,41.843102 39.9964853,41.6720854 C40.6168482,41.4936353 41.1479127,41.0893735 41.4850916,40.5389146 C41.581764,40.3290511 41.6898465,40.124634 41.8088547,39.9265801 C41.934358,39.770464 42.0695244,39.6223687 42.2135585,39.4831655 C42.569176,39.1157339 42.7920873,38.6401899 42.847008,38.1318066 C42.8969949,37.620191 42.7088058,37.1140273 42.3367292,36.7593328 C41.6892031,36.1786707 40.7073564,36.2948031 39.8381229,36.312399 C39.7380297,36.3252189 39.6363825,36.3080736 39.5460324,36.2631307 C39.4263808,36.1962666 39.3735933,36.0555 39.2996909,35.9393676 C38.9857245,35.5697564 38.4774462,35.4301195 38.0187153,35.5874512 C37.5736253,35.7472 37.1456676,35.9511578 36.7412588,36.1962666 C35.6503181,36.7276603 34.0631752,36.0801342 32.940562,35.7950819 C31.5624217,35.4428464 30.2130427,34.9863868 28.9040811,34.4296463 C28.547663,34.3066072 28.226435,34.0988959 27.9679836,33.8243502 C27.5069731,33.2507265 29.3756491,29.5133746 29.868332,28.9538275 C30.3610149,28.3942805 29.3017466,32.2477648 29.9774261,31.9591934 C30.6531055,31.670622 31.3850916,30.03773 31.8636979,29.4746638 C32.4971473,28.7215627 32.6027222,27.6658136 32.6555097,26.6769286 C32.7223738,25.4452213 33.3347083,18.7728868 31.951677,18.6884268 C31.0578094,18.6321202 29.5304923,20.0151516 28.900562,20.560622 C28.0088737,21.3352141 27.2441411,22.2448184 26.6342205,23.2563014 L26.6342205,23.2563014 Z" id="Path" fill="#F3BD8F"></path>
                            <path d="M42.051677,6.2129913 L33.2748825,7.66992509 C33.0739865,7.70329669 32.868101,7.65466121 32.7033742,7.53492001 C32.5386473,7.41517881 32.4288565,7.23434682 32.3986107,7.03295645 L32.3458233,6.68104008 C32.2848445,6.26930316 32.5678812,5.88563113 32.9792728,5.82236412 L40.9114679,4.55546516 L40.9114679,4.55546516 C41.379961,4.85477171 41.7334373,5.30374855 41.9144296,5.82940245 L42.051677,6.2129913 Z" id="Path" fill="#6871FD"></path>
                            <path d="M42.051677,6.2129913 L33.2748825,7.66992509 C33.0739865,7.70329669 32.868101,7.65466121 32.7033742,7.53492001 C32.5386473,7.41517881 32.4288565,7.23434682 32.3986107,7.03295645 L32.3458233,6.68104008 C32.2848445,6.26930316 32.5678812,5.88563113 32.9792728,5.82236412 L40.9748128,4.56250349 L41.1226177,4.6786359 C41.6063571,5.06657459 41.9357963,5.61439208 42.051677,6.22354879 L42.051677,6.2129913 Z" id="Path" fill="url(#linearGradient-16)"></path>
                            <path d="M51.3246735,69.557939 C49.9592379,70.0646986 48.5093425,70.2969634 47.3339418,69.557939 C46.5773215,69.0863711 46.0881578,68.2945592 45.5145341,67.6118415 C44.2368869,66.0960466 42.4868247,65.0536937 40.5454749,64.6522247 C40.1871691,64.5654638 39.8153115,64.5499199 39.4510149,64.6064756 C39.3033258,64.6372851 39.1602123,64.6869609 39.0251961,64.7542805 C39.2820951,63.561284 40.8833146,62.4597857 41.7032797,61.6750122 C42.3437675,61.0591585 43.1461369,60.4151516 44.0153703,60.5946289 C44.6277048,60.7213188 45.0711195,61.2351167 45.4828616,61.7102038 C47.7184824,64.3076791 50.2083739,66.6749623 52.9153355,68.7766847 C52.3874609,69.0441411 51.8595864,69.3080784 51.3246735,69.557939 Z" id="Path" fill="url(#linearGradient-17)"></path>
                        </g>
                    </g>
                </g>
            </g>
        </g>
    </g>
</svg>