<?xml version="1.0" encoding="UTF-8"?>
<svg width="22px" height="22px" viewBox="0 0 22 22" version="1.1" xmlns="http://www.w3.org/2000/svg" xmlns:xlink="http://www.w3.org/1999/xlink">
    <!-- Generator: Sketch 64 (93537) - https://sketch.com -->
    <title>sad</title>
    <desc>Created with Sketch.</desc>
    <g id="Page-1" stroke="none" stroke-width="1" fill="none" fill-rule="evenodd">
        <g id="Agent-dashboard-screen---12-04-20" transform="translate(-1175.000000, -647.000000)" fill-rule="nonzero">
            <g id="User-Report" transform="translate(123.783252, 583.000000)">
                <g id="Group-21" transform="translate(-3.000000, 0.000000)">
                    <g id="Report-1" transform="translate(0.000000, 50.000000)">
                        <g id="Group-32" transform="translate(1012.216748, 13.000000)">
                            <g id="sad" transform="translate(42.500000, 1.500000)">
                                <circle id="Oval" fill="#FFD93B" cx="10.5" cy="10.5" r="10.5"></circle>
                                <path d="M21,10.5 C21,16.30125 16.2979687,21 10.5,21 C7.1990625,21 4.2525,19.4775 2.32640625,17.0920313 C4.1278125,18.5489062 6.42140625,19.4184375 8.9184375,19.4184375 C14.7164063,19.4184375 19.4184375,14.7196875 19.4184375,8.9184375 C19.4184375,6.42140625 18.5489062,4.1278125 17.0920313,2.32640625 C19.4742188,4.2525 21,7.1990625 21,10.5 Z" id="Path" fill="#F4C534"></path>
                                <g id="Group" transform="translate(4.470703, 10.705078)" fill="#3E4347">
                                    <path d="M9.16420313,5.07773438 C9.16420313,5.38420312 8.91942187,5.62439062 8.61754688,5.62439062 L3.44170313,5.62439062 C3.13982812,5.62439062 2.89504687,5.38354687 2.89504687,5.07773438 C2.89504687,4.77585937 3.13982812,4.53107813 3.44170313,4.53107813 L8.61754687,4.53107813 C8.91876562,4.53107813 9.16420313,4.77585937 9.16420313,5.07773438 Z" id="Path"></path>
                                    <path d="M0.115171875,0.027890625 C0.371765625,-0.123046875 1.13104688,0.690703125 2.32345313,0.735328125 C3.55785938,0.781265625 4.27514063,-0.123046875 4.53173438,0.027890625 C4.85132813,0.137484375 4.41557813,2.22435938 2.32345313,2.23223437 C0.231984375,2.22435938 -0.204421875,0.137484375 0.115171875,0.027890625 Z" id="Path"></path>
                                </g>
                                <path d="M4.0936875,9.81553125 C3.85546875,9.77746875 3.69271875,9.55303125 3.7314375,9.31415625 C3.77015625,9.0759375 3.99065625,8.91253125 4.2328125,8.95190625 C6.6924375,9.34696875 7.43990625,7.5901875 7.447125,7.57246875 C7.5376875,7.3486875 7.7923125,7.2410625 8.01740625,7.33228125 C8.2411875,7.4235 8.3488125,7.67878125 8.25759375,7.9025625 C7.76409375,9.111375 6.21403125,10.156125 4.0936875,9.81553125 Z" id="Path" fill="#E9B02C"></path>
                                <path d="M16.414125,10.7329688 C16.1575312,10.5820313 15.39825,11.3957813 14.2058437,11.4404063 C12.9714375,11.4863438 12.2541562,10.5820313 11.9975625,10.7329688 C11.6779687,10.8425625 12.1137187,12.9294375 14.2058437,12.9373125 C16.2973125,12.9294375 16.7337187,10.8425625 16.414125,10.7329688 Z" id="Path" fill="#3E4347"></path>
                                <path d="M12.7424063,7.90190625 C12.6511875,7.678125 12.7588125,7.42284375 12.9825938,7.331625 C13.2057188,7.24040625 13.4603438,7.347375 13.5522188,7.56984375 C13.5850313,7.64859375 14.3364375,9.342375 16.7671875,8.95190625 C17.0080313,8.91253125 17.2305,9.0759375 17.2685625,9.31415625 C17.306625,9.55303125 17.1445312,9.77746875 16.9063125,9.81553125 C14.8010625,10.1541562 13.2398438,9.121875 12.7424063,7.90190625 Z" id="Path" fill="#E9B02C"></path>
                            </g>
                        </g>
                    </g>
                </g>
            </g>
        </g>
    </g>
</svg>