<?xml version="1.0" encoding="UTF-8"?>
<svg width="22px" height="22px" viewBox="0 0 22 22" version="1.1" xmlns="http://www.w3.org/2000/svg" xmlns:xlink="http://www.w3.org/1999/xlink">
    <!-- Generator: Sketch 64 (93537) - https://sketch.com -->
    <title>smile</title>
    <desc>Created with Sketch.</desc>
    <g id="Page-1" stroke="none" stroke-width="1" fill="none" fill-rule="evenodd">
        <g id="Agent-dashboard-screen---12-04-20" transform="translate(-1216.000000, -646.000000)" fill-rule="nonzero">
            <g id="User-Report" transform="translate(123.783252, 583.000000)">
                <g id="Group-21" transform="translate(-3.000000, 0.000000)">
                    <g id="Report-1" transform="translate(0.000000, 50.000000)">
                        <g id="Group-32" transform="translate(1012.216748, 13.000000)">
                            <g id="smile" transform="translate(83.500000, 0.500000)">
                                <circle id="Oval" fill="#FFD93B" cx="10.5" cy="10.5" r="10.5"></circle>
                                <path d="M10.5,17.248875 C7.42940625,17.248875 4.753875,15.1692188 3.9939375,12.1924688 C3.93421875,11.9581875 4.0753125,11.7199688 4.30959375,11.66025 C4.5425625,11.5992188 4.7814375,11.741625 4.84115625,11.9759063 C5.50265625,14.5654688 7.8290625,16.3740938 10.4993438,16.3740938 C13.169625,16.3740938 15.4966875,14.5654688 16.1575313,11.9759063 C16.2165938,11.741625 16.4548125,11.5992188 16.68975,11.66025 C16.9240313,11.7199688 17.065125,11.9581875 17.0054063,12.1924688 C16.246125,15.1692188 13.5705938,17.248875 10.5,17.248875 Z" id="Path" fill="#3E4347"></path>
                                <path d="M21,10.5 C21,16.30125 16.2979687,21 10.5,21 C7.1990625,21 4.2525,19.4775 2.32640625,17.0920313 C4.1278125,18.5489062 6.42140625,19.4184375 8.9184375,19.4184375 C14.7164063,19.4184375 19.4184375,14.7196875 19.4184375,8.9184375 C19.4184375,6.42140625 18.5489062,4.1278125 17.0920313,2.32640625 C19.4742188,4.2525 21,7.1990625 21,10.5 Z" id="Path" fill="#F4C534"></path>
                                <ellipse id="Oval" fill="#3E4347" cx="7.10915625" cy="9.03590625" rx="1.609125" ry="1.9123125"></ellipse>
                                <path d="M7.83496875,8.6244375 C7.709625,8.722875 7.5035625,8.6743125 7.37165625,8.5141875 C7.23975,8.3540625 7.2331875,8.13946875 7.35853125,8.04103125 C7.48321875,7.938 7.6899375,7.9865625 7.8211875,8.1466875 C7.95375,8.31140625 7.9550625,8.5220625 7.83496875,8.6244375 Z" id="Path" fill="#5A5F63"></path>
                                <ellipse id="Oval" fill="#3E4347" cx="13.8928125" cy="9.03590625" rx="1.609125" ry="1.9123125"></ellipse>
                                <path d="M14.6173125,8.6244375 C14.4919688,8.722875 14.2859063,8.6743125 14.154,8.5141875 C14.0220937,8.3540625 14.0155313,8.13946875 14.140875,8.04103125 C14.2655625,7.938 14.471625,7.9865625 14.6035312,8.1466875 C14.7360937,8.31140625 14.7374062,8.5220625 14.6173125,8.6244375 Z" id="Path" fill="#5A5F63"></path>
                            </g>
                        </g>
                    </g>
                </g>
            </g>
        </g>
    </g>
</svg>